<svg width="126" height="46" viewBox="0 0 126 46" fill="none" xmlns="http://www.w3.org/2000/svg">
<path d="M125.05 17.0022V26.1393H122.853V17.0022H125.05Z" fill="white"/>
<path d="M117.05 18.9225L114.822 26.1393H112.456L115.814 17.0022H117.314L117.05 18.9225ZM118.895 26.1393L116.661 18.9225L116.372 17.0022H117.891L121.267 26.1393H118.895ZM118.807 22.7317V24.4324H114.119V22.7317H118.807Z" fill="white"/>
<path d="M106.257 26.1393H104.13V18.797C104.13 18.2699 104.237 17.8264 104.45 17.4666C104.663 17.1069 104.964 16.8349 105.354 16.6508C105.743 16.4626 106.203 16.3684 106.734 16.3684C106.918 16.3684 107.092 16.381 107.255 16.4061C107.418 16.4312 107.577 16.4626 107.732 16.5002L107.738 18.0565C107.663 18.0356 107.586 18.021 107.506 18.0126C107.427 18.0042 107.328 18.0001 107.211 18.0001C107.006 18.0001 106.832 18.0314 106.69 18.0942C106.548 18.1528 106.439 18.2427 106.364 18.364C106.293 18.4812 106.257 18.6255 106.257 18.797V26.1393ZM107.575 19.3493V20.8177H103.151V19.3493H107.575Z" fill="white"/>
<path d="M101.853 21.3888V21.7591C101.853 22.4577 101.755 23.0853 101.558 23.6417C101.366 24.194 101.092 24.6667 100.736 25.06C100.381 25.4491 99.9603 25.7482 99.475 25.9574C98.9897 26.1624 98.4542 26.2649 97.8685 26.2649C97.2786 26.2649 96.7389 26.1624 96.2494 25.9574C95.7641 25.7482 95.3416 25.4491 94.9818 25.06C94.6262 24.6667 94.35 24.194 94.1534 23.6417C93.961 23.0853 93.8647 22.4577 93.8647 21.7591V21.3888C93.8647 20.6902 93.961 20.0626 94.1534 19.5062C94.35 18.9498 94.6241 18.477 94.9755 18.0879C95.3311 17.6947 95.7516 17.3955 96.2369 17.1905C96.7264 16.9814 97.266 16.8768 97.8559 16.8768C98.4416 16.8768 98.9772 16.9814 99.4625 17.1905C99.9519 17.3955 100.374 17.6947 100.73 18.0879C101.086 18.477 101.362 18.9498 101.558 19.5062C101.755 20.0626 101.853 20.6902 101.853 21.3888ZM99.6193 21.7591V21.3763C99.6193 20.9244 99.5796 20.527 99.5001 20.1839C99.4248 19.8367 99.3118 19.5459 99.1612 19.3117C99.0106 19.0774 98.8245 18.9017 98.6027 18.7845C98.3852 18.6632 98.1362 18.6025 97.8559 18.6025C97.5631 18.6025 97.3079 18.6632 97.0903 18.7845C96.8728 18.9017 96.6908 19.0774 96.5444 19.3117C96.3979 19.5459 96.2871 19.8367 96.2118 20.1839C96.1406 20.527 96.1051 20.9244 96.1051 21.3763V21.7591C96.1051 22.2067 96.1406 22.6042 96.2118 22.9514C96.2871 23.2945 96.3979 23.5852 96.5444 23.8237C96.695 24.0622 96.8791 24.2421 97.0966 24.3634C97.3183 24.4847 97.5756 24.5454 97.8685 24.5454C98.1488 24.5454 98.3977 24.4847 98.6153 24.3634C98.8328 24.2421 99.0148 24.0622 99.1612 23.8237C99.3118 23.5852 99.4248 23.2945 99.5001 22.9514C99.5796 22.6042 99.6193 22.2067 99.6193 21.7591Z" fill="white"/>
<path d="M87.9734 16.5002V26.1393H85.8523V16.5002H87.9734Z" fill="white"/>
<path d="M77.4744 22.8134V22.6816C77.4744 22.1837 77.5455 21.7256 77.6877 21.3073C77.83 20.8847 78.0392 20.5187 78.3153 20.2091C78.5914 19.8995 78.9324 19.6589 79.3382 19.4874C79.744 19.3117 80.2126 19.2238 80.7439 19.2238C81.2794 19.2238 81.7501 19.3117 82.1559 19.4874C82.5659 19.6589 82.9089 19.8995 83.185 20.2091C83.4612 20.5187 83.6703 20.8847 83.8126 21.3073C83.9548 21.7256 84.026 22.1837 84.026 22.6816V22.8134C84.026 23.3071 83.9548 23.7652 83.8126 24.1877C83.6703 24.6061 83.4612 24.9721 83.185 25.2859C82.9089 25.5955 82.568 25.8361 82.1621 26.0076C81.7563 26.1791 81.2878 26.2649 80.7564 26.2649C80.2251 26.2649 79.7545 26.1791 79.3445 26.0076C78.9345 25.8361 78.5914 25.5955 78.3153 25.2859C78.0392 24.9721 77.83 24.6061 77.6877 24.1877C77.5455 23.7652 77.4744 23.3071 77.4744 22.8134ZM79.5892 22.6816V22.8134C79.5892 23.0686 79.608 23.3071 79.6457 23.5288C79.6833 23.7505 79.7461 23.9451 79.8339 24.1124C79.9218 24.2756 80.041 24.4032 80.1916 24.4952C80.3423 24.5872 80.5305 24.6333 80.7564 24.6333C80.9782 24.6333 81.1622 24.5872 81.3087 24.4952C81.4593 24.4032 81.5785 24.2756 81.6664 24.1124C81.7542 23.9451 81.817 23.7505 81.8546 23.5288C81.8923 23.3071 81.9111 23.0686 81.9111 22.8134V22.6816C81.9111 22.4348 81.8923 22.2026 81.8546 21.985C81.817 21.7633 81.7542 21.5687 81.6664 21.4014C81.5785 21.2299 81.4593 21.096 81.3087 20.9998C81.1581 20.9035 80.9698 20.8554 80.7439 20.8554C80.5222 20.8554 80.336 20.9035 80.1854 20.9998C80.0389 21.096 79.9218 21.2299 79.8339 21.4014C79.7461 21.5687 79.6833 21.7633 79.6457 21.985C79.608 22.2026 79.5892 22.4348 79.5892 22.6816Z" fill="white"/>
<path d="M69.4739 22.8134V22.6816C69.4739 22.1837 69.545 21.7256 69.6872 21.3073C69.8295 20.8847 70.0387 20.5187 70.3148 20.2091C70.5909 19.8995 70.9319 19.6589 71.3377 19.4874C71.7435 19.3117 72.2121 19.2238 72.7434 19.2238C73.2789 19.2238 73.7496 19.3117 74.1554 19.4874C74.5654 19.6589 74.9084 19.8995 75.1845 20.2091C75.4607 20.5187 75.6699 20.8847 75.8121 21.3073C75.9543 21.7256 76.0255 22.1837 76.0255 22.6816V22.8134C76.0255 23.3071 75.9543 23.7652 75.8121 24.1877C75.6699 24.6061 75.4607 24.9721 75.1845 25.2859C74.9084 25.5955 74.5675 25.8361 74.1616 26.0076C73.7558 26.1791 73.2873 26.2649 72.7559 26.2649C72.2246 26.2649 71.754 26.1791 71.344 26.0076C70.934 25.8361 70.5909 25.5955 70.3148 25.2859C70.0387 24.9721 69.8295 24.6061 69.6872 24.1877C69.545 23.7652 69.4739 23.3071 69.4739 22.8134ZM71.5887 22.6816V22.8134C71.5887 23.0686 71.6075 23.3071 71.6452 23.5288C71.6828 23.7505 71.7456 23.9451 71.8335 24.1124C71.9213 24.2756 72.0405 24.4032 72.1912 24.4952C72.3418 24.5872 72.53 24.6333 72.7559 24.6333C72.9777 24.6333 73.1618 24.5872 73.3082 24.4952C73.4588 24.4032 73.578 24.2756 73.6659 24.1124C73.7537 23.9451 73.8165 23.7505 73.8542 23.5288C73.8918 23.3071 73.9106 23.0686 73.9106 22.8134V22.6816C73.9106 22.4348 73.8918 22.2026 73.8542 21.985C73.8165 21.7633 73.7537 21.5687 73.6659 21.4014C73.578 21.2299 73.4588 21.096 73.3082 20.9998C73.1576 20.9035 72.9693 20.8554 72.7434 20.8554C72.5217 20.8554 72.3355 20.9035 72.1849 20.9998C72.0385 21.096 71.9213 21.2299 71.8335 21.4014C71.7456 21.5687 71.6828 21.7633 71.6452 21.985C71.6075 22.2026 71.5887 22.4348 71.5887 22.6816Z" fill="white"/>
<path d="M63.7835 16.5002V26.1393H61.6687V16.5002H63.7835ZM63.5325 22.5121L63.0368 22.5247C63.0368 22.0477 63.0953 21.6084 63.2125 21.2068C63.3296 20.8052 63.497 20.4558 63.7145 20.1588C63.9321 19.8618 64.1935 19.6317 64.4989 19.4685C64.8043 19.3053 65.1432 19.2238 65.5156 19.2238C65.8503 19.2238 66.1557 19.2719 66.4318 19.3681C66.7121 19.4643 66.9526 19.6191 67.1535 19.8325C67.3585 20.0459 67.5153 20.3241 67.6241 20.6671C67.7371 21.0102 67.7936 21.4285 67.7936 21.9222V26.1393H65.6662V21.9097C65.6662 21.6335 65.6264 21.4202 65.5469 21.2696C65.4716 21.1148 65.3629 21.0081 65.2206 20.9495C65.0784 20.8868 64.9047 20.8554 64.6998 20.8554C64.4529 20.8554 64.2521 20.8972 64.0973 20.9809C63.9425 21.0646 63.8233 21.1817 63.7396 21.3323C63.6601 21.4787 63.6057 21.6524 63.5764 21.8532C63.5472 22.054 63.5325 22.2736 63.5325 22.5121Z" fill="white"/>
<path d="M57.1202 24.6333C57.3169 24.6333 57.4842 24.5977 57.6223 24.5266C57.7645 24.4513 57.8712 24.3467 57.9423 24.2128C58.0176 24.0747 58.0532 23.9095 58.049 23.717H60.0383C60.0425 24.2275 59.917 24.6751 59.6618 25.06C59.4108 25.4407 59.0677 25.7377 58.6326 25.9511C58.2017 26.1603 57.7143 26.2649 57.1704 26.2649C56.6391 26.2649 56.1747 26.1791 55.7773 26.0076C55.3798 25.8319 55.0472 25.5892 54.7795 25.2796C54.5159 24.9659 54.3172 24.5998 54.1833 24.1814C54.0536 23.7631 53.9888 23.3091 53.9888 22.8197V22.6753C53.9888 22.1858 54.0536 21.7319 54.1833 21.3135C54.3172 20.891 54.5159 20.5249 54.7795 20.2153C55.0472 19.9016 55.3777 19.6589 55.771 19.4874C56.1684 19.3117 56.6307 19.2238 57.1579 19.2238C57.7227 19.2238 58.2205 19.3305 58.6514 19.5439C59.0865 19.7572 59.4275 20.0668 59.6743 20.4726C59.9212 20.8784 60.0425 21.37 60.0383 21.9474H58.049C58.0532 21.7424 58.0218 21.5583 57.9549 21.3951C57.8879 21.232 57.7833 21.1023 57.6411 21.006C57.503 20.9056 57.3252 20.8554 57.1077 20.8554C56.8901 20.8554 56.7144 20.9035 56.5805 20.9998C56.4467 21.096 56.3442 21.2299 56.273 21.4014C56.2061 21.5687 56.1601 21.7612 56.135 21.9787C56.1141 22.1963 56.1036 22.4285 56.1036 22.6753V22.8197C56.1036 23.0707 56.1141 23.3071 56.135 23.5288C56.1601 23.7463 56.2082 23.9388 56.2793 24.1061C56.3504 24.2693 56.4529 24.399 56.5868 24.4952C56.7207 24.5872 56.8985 24.6333 57.1202 24.6333Z" fill="white"/>
<path d="M50.2425 23.7108C50.2425 23.5685 50.2216 23.4409 50.1798 23.3279C50.1379 23.2108 50.0605 23.102 49.9476 23.0016C49.8346 22.9012 49.6714 22.8008 49.4581 22.7004C49.2489 22.5958 48.9728 22.487 48.6297 22.3741C48.2281 22.2402 47.8411 22.0896 47.4688 21.9222C47.0964 21.7507 46.7638 21.552 46.471 21.3261C46.1781 21.096 45.9459 20.8282 45.7744 20.5228C45.6029 20.2132 45.5171 19.8534 45.5171 19.4434C45.5171 19.0502 45.6049 18.6967 45.7807 18.3829C45.9564 18.0649 46.2011 17.7951 46.5149 17.5733C46.8328 17.3474 47.2052 17.1759 47.6319 17.0588C48.0587 16.9374 48.5251 16.8768 49.0313 16.8768C49.7007 16.8768 50.2906 16.9939 50.801 17.2282C51.3156 17.4583 51.7172 17.7867 52.0059 18.2134C52.2988 18.636 52.4452 19.1359 52.4452 19.7133H50.2551C50.2551 19.4832 50.207 19.2803 50.1107 19.1046C50.0187 18.9288 49.8785 18.7908 49.6903 18.6904C49.502 18.59 49.2656 18.5398 48.9811 18.5398C48.705 18.5398 48.4728 18.5816 48.2846 18.6653C48.0963 18.749 47.9541 18.8619 47.8578 19.0042C47.7616 19.1422 47.7135 19.2949 47.7135 19.4623C47.7135 19.6003 47.7512 19.7258 47.8265 19.8388C47.9059 19.9476 48.0168 20.0501 48.1591 20.1463C48.3055 20.2425 48.4812 20.3346 48.6862 20.4224C48.8954 20.5103 49.1297 20.596 49.389 20.6797C49.8744 20.8345 50.3053 21.0081 50.6818 21.2006C51.0625 21.3888 51.3826 21.6043 51.6419 21.8469C51.9055 22.0854 52.1042 22.3573 52.2381 22.6627C52.3762 22.9682 52.4452 23.3133 52.4452 23.6982C52.4452 24.1082 52.3657 24.4722 52.2067 24.7901C52.0478 25.1081 51.8197 25.3779 51.5227 25.5997C51.2257 25.8172 50.8701 25.9825 50.4559 26.0954C50.0417 26.2084 49.5794 26.2649 49.069 26.2649C48.6004 26.2649 48.1381 26.2063 47.6821 26.0892C47.2303 25.9678 46.8203 25.7837 46.4521 25.5369C46.084 25.2859 45.789 24.9658 45.5673 24.5768C45.3497 24.1835 45.241 23.717 45.241 23.1773H47.4499C47.4499 23.4451 47.4855 23.671 47.5566 23.8551C47.6277 24.0392 47.7323 24.1877 47.8704 24.3006C48.0084 24.4094 48.1779 24.4889 48.3787 24.5391C48.5795 24.5851 48.8096 24.6081 49.069 24.6081C49.3493 24.6081 49.5752 24.5684 49.7468 24.4889C49.9183 24.4052 50.0438 24.2965 50.1233 24.1626C50.2028 24.0245 50.2425 23.8739 50.2425 23.7108Z" fill="white"/>
<path d="M27.1378 0.67722C27.8263 1.05972 28.4689 1.48813 29.0962 1.97774C29.2033 2.05424 29.2951 2.13074 29.4022 2.20724C29.8918 2.58974 30.2131 2.94165 30.5191 3.47716C30.6875 3.75256 30.6874 3.75255 30.9322 3.95146C31.3148 4.01266 31.6667 3.99736 32.0645 3.96676C33.6251 3.89026 35.201 4.74707 36.4403 5.63448L36.7463 5.94048C38.6588 7.9754 39.5616 10.454 39.5309 13.2387C39.5004 13.7436 39.4086 14.2179 39.3014 14.7228C39.179 15.3348 39.179 15.3348 39.3473 15.9315C39.5769 16.2528 39.5769 16.2528 39.9594 16.6659L40.2654 16.9719C40.3878 17.2014 40.4949 17.4156 40.6173 17.6451C40.6785 17.7675 40.755 17.8899 40.8162 18.0276C41.4129 19.374 41.5659 20.5675 41.5506 22.0363C41.5506 22.2046 41.5506 22.3729 41.5506 22.5565C41.5353 24.9586 40.5867 26.8252 38.9648 28.5695C38.567 28.9367 38.1539 29.258 37.6949 29.564C36.9605 30.0689 36.6698 30.4208 36.2873 31.2164C35.1551 33.1595 33.3497 34.9496 31.1312 35.5769C31.0088 35.6075 30.9016 35.6228 30.7792 35.6534C30.5803 35.6993 30.5804 35.6993 30.3814 35.7452C29.4022 35.9594 28.5607 35.9441 27.5662 35.8064C27.3061 35.7758 27.046 35.7452 26.7859 35.7146C26.587 35.6993 26.4034 35.6687 26.1892 35.6534L25.8832 35.9594L25.4242 36.4184L24.6726 37.1834L23.8942 37.9485L22.6702 39.1725L21.4461 40.7025L20.3751 41.8959L20.1303 42.1866L18.7839 43.5177L16.8408 45.0477C16.8408 45.0477 17.9883 41.3757 18.2637 40.167C18.5544 38.8818 18.7227 37.566 18.9216 36.2654C18.9828 35.8523 19.0593 35.4545 19.1511 35.0567C18.7686 34.8119 18.4167 34.613 17.973 34.46C17.0856 34.154 15.219 32.8076 15.219 32.8076C15.219 32.8076 14.2704 31.9049 13.842 31.3847C13.5206 31.0328 13.5206 31.0328 13.1228 31.0787C12.6944 31.2317 12.6944 31.2317 12.2201 31.4612C11.5316 31.7672 10.8737 31.7519 10.124 31.7519C10.0016 31.7519 9.8639 31.7519 9.7262 31.7672C8.51749 31.7672 7.50768 31.4 6.57437 30.635C6.48256 30.5585 6.37546 30.482 6.26836 30.4055C6.17656 30.329 6.06946 30.2525 5.96236 30.1607C5.62575 29.9159 5.28915 29.6864 4.96785 29.4416C4.89135 29.3804 4.43235 28.9061 4.43235 28.9061C4.43235 28.9061 3.57553 28.1716 3.20832 27.7126L2.90232 27.4066C1.7089 25.8766 0.882698 24.2395 0.454292 22.3576C0.423692 22.2199 0.423692 22.2199 0.377791 22.0669C-0.509621 18.5631 0.224786 14.8605 1.96901 11.7699C2.25971 11.2955 2.99412 10.5917 3.33072 10.148C3.33072 10.148 3.78973 9.49012 4.12634 9.19942L4.58534 8.74041H4.59255L5.12085 8.32732C5.12085 8.32732 5.57985 8.0213 5.93176 7.8224C6.02356 7.7612 6.13066 7.7 6.23776 7.6541C6.98747 7.2104 6.98747 7.21039 7.49238 7.21039C7.52298 7.13389 7.56888 7.0574 7.61478 6.96559C7.70658 6.78199 7.70658 6.78199 7.79838 6.59839C7.87488 6.44538 7.95138 6.27709 8.04318 6.12408C9.2519 4.04326 11.4857 2.16134 13.7808 1.42693C14.0256 1.36573 14.2857 1.30453 14.5305 1.24333C14.6682 1.21273 14.8059 1.18213 14.9436 1.15153C15.9993 0.937324 17.0856 0.76902 18.1566 1.04442C19.2276 1.31983 19.8243 1.19743 20.7882 0.723123C22.762 -0.225488 25.1488 -0.240791 27.1378 0.67722ZM22.6243 2.91105C22.7314 2.97225 22.8385 3.03345 22.9609 3.09465C23.8636 3.67606 24.8887 4.68587 25.3783 5.66508C25.5619 6.10878 26.2045 6.84319 26.434 7.2716C27.5509 9.39832 27.8263 11.5556 28.1323 13.9272C28.2394 14.1261 28.6372 14.3403 28.7443 14.5392C28.8667 14.7228 28.8667 14.7228 28.9891 14.9217C29.4634 16.0845 29.494 17.232 29.0044 18.3948C28.8667 18.7008 28.5913 19.1292 28.5913 19.1292C28.4689 19.2516 28.3465 19.374 28.2241 19.4964C27.6733 20.0626 27.2602 20.2462 26.4799 20.2615C25.7149 20.2462 25.1947 20.0931 24.6133 19.5882C23.7106 18.5937 23.2975 17.7063 23.3281 16.3599C23.4505 15.4113 23.8789 14.5698 24.6133 13.9425C25.0111 13.6671 25.4242 13.407 25.8373 13.1622C25.669 10.607 24.9193 8.28141 23.2363 6.27709L22.7773 5.81808L22.4713 5.51208C21.645 4.71647 20.6046 4.25746 19.5642 3.82906C19.4418 3.78316 19.3347 3.72196 19.2123 3.67606C17.6976 3.14055 15.4179 3.27825 13.9797 3.95146C13.7042 4.10446 13.4135 4.27276 13.1534 4.44106C12.9698 4.53287 12.7709 4.63997 12.572 4.73177C11.8835 5.17548 11.2715 5.71098 10.7054 6.27709C10.7054 6.32299 10.7054 6.38419 10.7054 6.43009C10.8278 6.44539 10.8278 6.44539 10.9655 6.46069C11.348 6.52189 11.7305 6.58309 12.113 6.62899C12.3119 6.65959 12.3119 6.65959 12.5108 6.69019C13.184 6.79729 13.7501 6.9197 14.3775 7.1798C14.7906 7.2104 15.1425 6.8738 15.1425 6.8738C15.1425 6.7667 15.1425 6.9809 15.1425 6.8738C16.1523 6.43009 16.9326 6.6596 17.9883 6.9503C17.9883 6.9503 18.9828 7.63881 19.0593 7.94481C19.5336 9.15353 19.7172 10.2245 19.2888 11.4639C18.7992 12.2901 18.4473 12.7185 17.5293 12.9939C16.7184 13.0704 15.6168 12.5349 15.6168 12.5349L14.9283 11.9994C14.9283 11.9994 14.2857 10.8059 14.2398 9.93384C14.1786 9.42893 13.8267 9.44422 13.3676 9.18412C11.9447 8.70981 10.2923 8.74042 8.86939 9.16882C8.73169 9.19942 8.59399 9.24532 8.45628 9.29122C7.32407 9.64313 6.37546 10.2245 5.50335 11.0048L5.04435 11.4639L4.27934 12.3819C2.51981 14.5392 2.07611 17.4921 2.29031 20.185C2.44332 21.5773 2.79522 22.8013 3.51433 24.01C3.98864 23.4286 4.15694 22.9237 4.12634 22.174C4.03453 21.8221 3.89683 21.4855 3.77443 21.1336C3.48372 20.2461 3.65203 19.3587 3.97333 18.5019C4.44764 17.6757 4.93724 17.2014 5.80936 16.8189C6.71207 16.6659 7.46177 16.7271 8.24208 17.2014C9.03769 17.7981 9.3284 18.5019 9.6344 19.4199C9.7721 20.491 9.5273 21.3784 9.02239 22.327C8.37978 23.1532 7.58418 23.4439 6.58967 23.7193C6.43666 23.7652 6.26836 23.8111 6.11536 23.857C5.74815 24.5914 6.02356 25.6777 6.23776 26.4274C6.52846 27.2077 6.84977 27.7432 7.49238 28.2941C7.69128 28.493 7.69128 28.4929 7.89018 28.7071C8.63989 29.3192 9.7109 29.4263 10.6595 29.3192C11.2409 29.1968 11.7305 29.0285 12.2507 28.7531C12.1742 28.3552 12.0977 27.9727 11.9753 27.5749C11.4245 25.5553 11.4398 23.4745 11.9906 21.4702C12.1283 20.9347 12.1283 20.7052 11.8682 20.2155C11.4551 19.2975 11.5163 18.2571 11.6387 17.2779C11.807 16.8954 11.9753 16.6047 12.2354 16.2681C12.4343 16.0539 12.7556 15.6102 12.7556 15.6102C13.184 15.4419 13.6277 15.1359 13.6277 15.1359C14.1021 15.09 14.102 15.09 14.6376 15.1053C14.8212 15.1053 15.0594 15.1053 15.243 15.1053C15.243 15.1053 15.6168 15.1512 15.9228 15.4572L16.3818 15.7632C16.4736 15.855 16.5654 15.9468 16.6572 16.0386C17.361 16.7577 17.514 17.4462 17.514 18.4254C17.4834 19.68 17.2539 20.4451 16.3665 21.3325C15.6933 21.868 14.913 21.9445 14.0868 22.0363C13.3829 24.469 13.6736 26.7028 14.7906 28.952C15.3261 29.8547 16.8408 31.2164 16.8408 31.2164L17.1468 31.5224C17.1468 31.5224 20.0232 32.3792 21.7368 32.2874C21.6603 32.1803 21.5991 32.0885 21.5226 31.9814C20.5128 30.4667 19.8855 28.9979 19.5642 27.2077C19.4112 26.7028 19.2276 26.4886 18.8145 26.1673L18.6462 26.0143L18.5085 25.8613C17.4375 24.2242 17.3763 23.2909 17.9883 21.6385C18.2812 20.8476 18.7533 20.644 18.7533 20.644C19.3041 20.1085 19.809 20.0319 20.5587 20.0166C21.1095 20.0319 21.7062 20.2003 22.1806 20.5063C22.1806 20.3992 22.1806 20.6134 22.1806 20.5063C22.2877 20.5828 22.4101 20.6593 22.5172 20.7511C23.2057 21.3631 23.4811 22.0363 23.6035 22.9543C23.6341 23.9794 23.527 24.8668 22.9303 25.7236C22.7161 25.9072 22.5019 26.0908 22.2724 26.2591C21.8286 26.611 21.8286 26.611 21.6297 27.1006C21.6909 28.1563 22.257 29.1049 22.7773 30.0077C22.8538 30.1454 22.915 30.2678 22.9915 30.4055C23.7871 31.7213 25.1335 32.6699 26.5717 33.2207C26.9542 33.3125 27.2908 33.3431 27.6733 33.3584C27.8875 33.3737 27.8875 33.3737 28.117 33.389C29.953 33.4349 31.1159 33.1289 32.5694 31.9814C32.6612 31.9049 32.753 31.8437 32.8601 31.7672C33.3803 31.3694 33.5792 31.0481 33.7934 30.4514C32.6612 30.1148 31.7585 29.9159 30.5803 30.1454C30.5344 30.1913 30.6262 30.0995 30.5803 30.1454C29.647 30.2372 28.7902 30.3443 27.9793 29.8394C27.8263 29.7935 27.7651 29.7476 27.6121 29.5946C27.4591 29.4416 27.6121 29.5946 27.4591 29.4416C27.352 29.4416 27.5662 29.4416 27.4591 29.4416C27.4285 29.3192 27.3061 29.2121 27.1225 29.0285C27.0766 28.8755 26.9742 28.7643 26.9283 28.6113C26.8824 28.4583 26.8212 28.3053 26.7753 28.1523C26.6682 27.7545 26.6419 27.7123 26.6023 27.4066C26.4952 26.5804 26.7859 25.9225 27.0766 25.1728C27.2296 24.8209 27.5203 24.4996 27.5203 24.4996C27.4132 24.4996 27.6274 24.4996 27.5203 24.4996C27.5968 24.4078 27.6886 24.316 27.7651 24.2242C28.3312 23.704 28.9279 23.4133 29.6929 23.4439C30.6263 23.6122 31.4372 23.9947 31.988 24.775C32.141 25.0351 32.2787 25.2952 32.4011 25.5706C32.447 25.6777 32.5082 25.7695 32.5541 25.8766C32.6 26.305 32.6306 26.7334 32.6612 27.1771C32.6765 27.5596 32.6765 27.5596 32.8601 27.8656C34.0229 28.2634 35.2928 28.0492 36.3791 27.5596C37.6796 26.7946 38.6588 25.6318 39.1178 24.1783C39.5004 22.4647 39.5463 20.338 38.6282 18.8079C38.4446 18.5478 38.261 18.303 38.0621 18.0582C37.7561 18.2112 37.7561 18.2112 37.4501 18.3642L37.1441 18.6702C36.9911 19.1139 36.9605 19.4505 36.9452 19.9248C36.8534 21.0112 36.5321 21.7915 35.7518 22.5565C35.1092 23.0614 34.436 23.245 33.6251 23.2603C33.1661 23.1532 32.8295 23.0002 32.4011 22.8013C32.2481 22.7554 31.9421 22.6483 31.9421 22.6483C31.9421 22.6392 31.9421 22.6573 31.9421 22.6483C31.9421 22.6483 31.529 22.296 31.4831 22.1893C30.9169 20.8735 30.7333 19.6494 31.1771 18.2724C31.529 17.4156 32.1869 16.7883 33.0131 16.3752C33.3038 16.3599 33.6098 16.3446 33.9005 16.3446C34.0535 16.3446 34.2218 16.3446 34.3748 16.3446C34.8491 16.3752 35.1857 16.467 35.6141 16.6812C35.6141 16.6812 35.7671 16.8648 35.813 16.9719C35.813 16.8648 35.813 17.079 35.813 16.9719C35.966 16.926 36.119 16.6659 36.2261 16.5282C37.1441 14.784 37.5113 12.9327 36.9911 11.0354C36.9452 10.8824 36.8993 10.7294 36.8381 10.5611C36.7922 10.4234 36.7616 10.2857 36.7157 10.148C36.2261 8.69451 35.2469 7.65411 33.9005 6.9503C33.2579 6.64429 32.7989 6.55249 32.0951 6.58309C32.1869 6.95029 32.2787 7.3022 32.4011 7.6541L32.8601 7.96011C32.8601 7.96011 33.0896 8.08251 33.1967 8.14371C33.1967 8.14371 34.1453 9.10762 34.4207 9.84203C34.6502 10.9895 34.589 11.9382 34.0841 12.9939C33.7169 13.4376 33.7169 13.4376 33.3191 13.7589C33.212 13.8507 33.1049 13.9425 32.9978 14.0343C32.3705 14.4321 31.7432 14.4321 31.0241 14.3709C29.9683 14.019 29.341 13.4988 28.8361 12.5196C28.3924 11.4485 28.7902 10.2857 29.035 9.16882C28.9279 9.16882 29.1421 9.16882 29.035 9.16882C29.188 8.92402 29.341 8.66392 29.494 8.40382C29.5858 8.34261 29.6623 8.26611 29.7694 8.2049C30.0142 7.9295 30.0142 7.9295 29.9377 7.36339C29.647 5.72628 28.3924 4.37986 27.0919 3.41595C25.9291 2.69684 23.8636 2.08484 22.6243 2.91105ZM16.0452 9.33712C15.984 9.68903 15.984 9.68903 16.0146 10.0562C16.0146 10.1786 16.0146 10.301 16.0299 10.4387C16.0299 10.5305 16.1523 10.8977 16.1523 11.0048C16.6266 11.2803 16.4583 11.3262 16.9938 11.3109C17.361 11.2191 17.5293 11.0048 17.7282 10.7294C17.7435 10.5152 17.7435 10.2857 17.7588 10.0715C17.7588 9.94913 17.7741 9.82673 17.7741 9.70433C17.7588 9.35243 17.7588 9.35243 17.5293 9.09232C17.2845 8.87812 17.2845 8.87811 16.902 8.84751C16.4277 8.89341 16.3206 8.96992 16.0452 9.33712ZM30.9017 10.1174C30.6875 10.4846 30.6109 10.7447 30.5803 11.1731C30.7028 11.6015 30.7027 11.6015 30.8864 11.9382C31.1771 11.9535 31.1771 11.9535 31.4831 11.9688C31.5902 11.9688 31.6973 11.9841 31.8197 11.9841C31.9727 11.9688 31.9727 11.9688 32.1257 11.9382C32.4623 11.4332 32.4623 11.3414 32.3705 10.76C32.3552 10.6376 32.3399 10.5152 32.3246 10.3775C32.3093 10.2857 32.294 10.1939 32.2787 10.0868C31.5596 9.91853 31.5596 9.91853 30.9017 10.1174ZM25.7149 16.0233C25.3324 16.4823 25.3324 16.4823 25.3936 16.9413C25.5313 17.3238 25.5313 17.3238 25.8373 17.7522C26.3728 17.8134 26.3728 17.8134 26.9083 17.7522C27.2755 17.385 27.2602 17.2779 27.2602 16.773C27.2602 16.6506 27.2602 16.5282 27.2602 16.4058C27.2296 16.0692 27.2296 16.0692 27.0154 15.7938C26.4493 15.396 26.1739 15.5796 25.7149 16.0233ZM13.9032 17.5992C13.5512 18.1347 13.5053 18.3489 13.5971 18.9762C13.9185 19.374 13.9184 19.374 14.3622 19.5882C14.7447 19.5729 14.9283 19.4658 15.2496 19.2516C15.525 18.8385 15.4944 18.5325 15.4332 18.0582C15.1731 17.5686 15.1731 17.5686 14.76 17.4768C14.3469 17.4156 14.3469 17.4156 13.9032 17.5992ZM33.365 18.8385C33.1049 19.2516 33.0437 19.5729 33.0284 20.0472C33.212 20.491 33.3497 20.7358 33.7781 20.9806C34.1453 20.9806 34.1453 20.9806 34.5278 20.644C34.9103 20.2309 34.9103 20.2308 34.9409 19.7106C34.895 19.2363 34.895 19.2363 34.5737 18.8079C33.9464 18.6243 33.9464 18.6243 33.365 18.8385ZM5.97766 19.2822C5.68696 19.7718 5.71755 20.2614 5.79406 20.8123C5.93176 21.1489 5.93176 21.1489 6.25306 21.2713C6.72737 21.2713 6.72737 21.2713 7.17107 21.1183C7.55358 20.5522 7.53828 20.2614 7.47708 19.5882C7.32407 19.2822 7.32407 19.2822 7.01807 19.1292C6.58966 19.068 6.36016 19.068 5.97766 19.2822ZM19.8855 22.6636C19.6713 23.245 19.7172 23.5969 19.8702 24.1783C20.2986 24.5302 20.2986 24.5302 20.8035 24.469C21.2625 24.3772 21.2625 24.3772 21.4767 24.0712C21.5991 23.5969 21.5379 23.2756 21.4155 22.8013C21.2472 22.4953 21.2472 22.4953 20.9565 22.3423C20.4057 22.2352 20.2527 22.2505 19.8855 22.6636ZM28.9126 26.1826C28.6984 26.764 28.7443 27.1159 28.8973 27.6973C29.3104 28.0492 29.3104 28.0492 29.7388 27.988C30.2131 27.8197 30.3661 27.6973 30.5803 27.2383C30.565 26.7487 30.5038 26.4427 30.2437 26.0296C29.7082 25.693 29.341 25.7083 28.9126 26.1826ZM21.8592 32.5934C21.7215 33.1595 21.5991 33.7103 21.4767 34.2611C21.4461 34.4141 21.4002 34.5671 21.3696 34.7354C21.1554 35.6687 20.5281 37.4283 20.5587 38.3922C21.0636 38.2239 21.7062 37.1987 22.0275 36.8009C22.6396 36.0665 23.3128 35.4086 24.0013 34.7354C23.7565 34.154 23.4046 33.8174 22.9303 33.4043C22.7314 33.2207 22.7314 33.2207 22.5172 33.0371C22.1958 32.7464 22.1959 32.7464 21.8592 32.5934Z" fill="white"/>
<path d="M79.0597 39.4268V36.628C79.0597 36.4355 79.0325 36.2703 78.9781 36.1322C78.9237 35.9942 78.8379 35.8875 78.7208 35.8122C78.6036 35.7327 78.4467 35.6929 78.2501 35.6929C78.0911 35.6929 77.9552 35.7201 77.8422 35.7745C77.7293 35.8289 77.6435 35.9105 77.5849 36.0193C77.5263 36.128 77.4971 36.2661 77.4971 36.4334H75.3822C75.3822 36.1197 75.4513 35.8289 75.5893 35.5611C75.7316 35.2892 75.9324 35.0528 76.1918 34.852C76.4553 34.6512 76.7691 34.4964 77.1331 34.3876C77.5012 34.2747 77.9112 34.2182 78.3631 34.2182C78.9028 34.2182 79.3839 34.3081 79.8064 34.488C80.2332 34.6679 80.5699 34.9378 80.8168 35.2976C81.0636 35.6532 81.187 36.1008 81.187 36.6405V39.4206C81.187 39.864 81.2121 40.2008 81.2623 40.4309C81.3125 40.6568 81.3837 40.8556 81.4757 41.0271V41.1338H79.3546C79.2542 40.9246 79.1789 40.6694 79.1287 40.3682C79.0827 40.0627 79.0597 39.749 79.0597 39.4268ZM79.3169 36.9857L79.3295 38.1153H78.3945C78.1978 38.1153 78.0305 38.1425 77.8924 38.1968C77.7585 38.2512 77.6498 38.3265 77.5661 38.4228C77.4866 38.5148 77.428 38.6194 77.3904 38.7365C77.3569 38.8537 77.3402 38.9771 77.3402 39.1068C77.3402 39.2323 77.3695 39.3453 77.428 39.4457C77.4908 39.5419 77.5745 39.6172 77.679 39.6716C77.7836 39.726 77.9008 39.7532 78.0305 39.7532C78.2648 39.7532 78.4635 39.7092 78.6266 39.6214C78.794 39.5293 78.9216 39.4185 79.0094 39.2888C79.0973 39.1591 79.1412 39.0378 79.1412 38.9248L79.6056 39.7908C79.5219 39.9582 79.4257 40.1276 79.3169 40.2991C79.2124 40.4707 79.0806 40.6296 78.9216 40.7761C78.7668 40.9183 78.5764 41.0354 78.3505 41.1275C78.1246 41.2153 77.8506 41.2593 77.5284 41.2593C77.1101 41.2593 76.7252 41.1735 76.3738 41.002C76.0265 40.8304 75.7483 40.592 75.5391 40.2866C75.3299 39.977 75.2253 39.6214 75.2253 39.2197C75.2253 38.8683 75.2881 38.5545 75.4136 38.2784C75.5433 38.0023 75.7378 37.768 75.9972 37.5756C76.2566 37.3831 76.5871 37.2367 76.9887 37.1363C77.3904 37.0359 77.8631 36.9857 78.407 36.9857H79.3169Z" fill="white"/>
<path d="M73.4561 34.3436V41.1337H71.335V34.3436H73.4561ZM71.2095 32.5928C71.2095 32.2916 71.3182 32.0447 71.5358 31.8523C71.7533 31.6598 72.0357 31.5636 72.383 31.5636C72.7302 31.5636 73.0126 31.6598 73.2302 31.8523C73.4477 32.0447 73.5565 32.2916 73.5565 32.5928C73.5565 32.894 73.4477 33.1408 73.2302 33.3333C73.0126 33.5257 72.7302 33.622 72.383 33.622C72.0357 33.622 71.7533 33.5257 71.5358 33.3333C71.3182 33.1408 71.2095 32.894 71.2095 32.5928Z" fill="white"/>
<path d="M67.1505 39.4268V36.628C67.1505 36.4355 67.1233 36.2703 67.0689 36.1322C67.0145 35.9942 66.9287 35.8875 66.8116 35.8122C66.6945 35.7327 66.5376 35.6929 66.3409 35.6929C66.182 35.6929 66.046 35.7201 65.933 35.7745C65.8201 35.8289 65.7343 35.9105 65.6757 36.0193C65.6172 36.128 65.5879 36.2661 65.5879 36.4334H63.473C63.473 36.1197 63.5421 35.8289 63.6801 35.5611C63.8224 35.2892 64.0232 35.0528 64.2826 34.852C64.5462 34.6512 64.8599 34.4964 65.2239 34.3876C65.5921 34.2747 66.0021 34.2182 66.4539 34.2182C66.9936 34.2182 67.4747 34.3081 67.8973 34.488C68.324 34.6679 68.6608 34.9378 68.9076 35.2976C69.1544 35.6532 69.2779 36.1008 69.2779 36.6405V39.4206C69.2779 39.864 69.303 40.2008 69.3532 40.4309C69.4034 40.6568 69.4745 40.8556 69.5665 41.0271V41.1338H67.4454C67.345 40.9246 67.2697 40.6694 67.2195 40.3682C67.1735 40.0627 67.1505 39.749 67.1505 39.4268ZM67.4078 36.9857L67.4203 38.1153H66.4853C66.2886 38.1153 66.1213 38.1425 65.9832 38.1968C65.8494 38.2512 65.7406 38.3265 65.6569 38.4228C65.5774 38.5148 65.5189 38.6194 65.4812 38.7365C65.4477 38.8537 65.431 38.9771 65.431 39.1068C65.431 39.2323 65.4603 39.3453 65.5189 39.4457C65.5816 39.5419 65.6653 39.6172 65.7699 39.6716C65.8745 39.726 65.9916 39.7532 66.1213 39.7532C66.3556 39.7532 66.5543 39.7092 66.7175 39.6214C66.8848 39.5293 67.0124 39.4185 67.1003 39.2888C67.1881 39.1591 67.2321 39.0378 67.2321 38.9248L67.6964 39.7908C67.6128 39.9582 67.5165 40.1276 67.4078 40.2991C67.3032 40.4707 67.1714 40.6296 67.0124 40.7761C66.8576 40.9183 66.6673 41.0354 66.4413 41.1275C66.2154 41.2153 65.9414 41.2593 65.6193 41.2593C65.2009 41.2593 64.816 41.1735 64.4646 41.002C64.1173 40.8304 63.8391 40.592 63.6299 40.2866C63.4208 39.977 63.3162 39.6214 63.3162 39.2197C63.3162 38.8683 63.3789 38.5545 63.5044 38.2784C63.6341 38.0023 63.8287 37.768 64.088 37.5756C64.3474 37.3831 64.6779 37.2367 65.0796 37.1363C65.4812 37.0359 65.9539 36.9857 66.4978 36.9857H67.4078Z" fill="white"/>
<path d="M59.532 34.3436H61.6531V41.3533C61.6531 41.8972 61.5485 42.3553 61.3393 42.7277C61.1301 43.1042 60.831 43.3887 60.4419 43.5811C60.0528 43.7777 59.5884 43.8761 59.0488 43.8761C58.8689 43.8761 58.7036 43.8677 58.553 43.851C58.3982 43.8384 58.2288 43.8112 58.0447 43.7694V42.1691C58.1535 42.1859 58.2539 42.1984 58.3459 42.2068C58.4379 42.2193 58.5383 42.2256 58.6471 42.2256C58.8396 42.2256 59.0006 42.1942 59.1303 42.1315C59.26 42.0687 59.3583 41.9725 59.4253 41.8428C59.4964 41.7131 59.532 41.55 59.532 41.3533V34.3436ZM59.3751 32.5928C59.3751 32.2916 59.4839 32.0447 59.7014 31.8523C59.919 31.6598 60.2013 31.5636 60.5486 31.5636C60.8958 31.5636 61.1782 31.6598 61.3958 31.8523C61.6133 32.0447 61.7221 32.2916 61.7221 32.5928C61.7221 32.894 61.6133 33.1408 61.3958 33.3333C61.1782 33.5257 60.8958 33.622 60.5486 33.622C60.2013 33.622 59.919 33.5257 59.7014 33.3333C59.4839 33.1408 59.3751 32.894 59.3751 32.5928Z" fill="white"/>
<path d="M54.8894 41.2593C54.3372 41.2593 53.8435 41.1735 53.4084 41.002C52.9733 40.8263 52.6051 40.5857 52.3039 40.2803C52.0069 39.9749 51.7789 39.6235 51.6199 39.226C51.4651 38.8286 51.3877 38.4081 51.3877 37.9647V37.7262C51.3877 37.2283 51.4567 36.7681 51.5948 36.3456C51.7328 35.9189 51.9378 35.5465 52.2098 35.2286C52.4817 34.9106 52.8227 34.6638 53.2327 34.488C53.6427 34.3081 54.1196 34.2182 54.6635 34.2182C55.1446 34.2182 55.5755 34.2956 55.9562 34.4504C56.3369 34.6052 56.6591 34.8269 56.9227 35.1156C57.1904 35.4043 57.3933 35.7536 57.5314 36.1636C57.6736 36.5736 57.7447 37.0338 57.7447 37.5442V38.4039H52.1972V37.0798H55.6801V36.9167C55.6843 36.6907 55.6446 36.4983 55.5609 36.3393C55.4814 36.1803 55.3642 36.059 55.2095 35.9753C55.0547 35.8917 54.8664 35.8498 54.6447 35.8498C54.4146 35.8498 54.2242 35.9 54.0736 36.0004C53.9272 36.1008 53.8121 36.2389 53.7284 36.4146C53.649 36.5861 53.5925 36.7849 53.559 37.0108C53.5255 37.2367 53.5088 37.4752 53.5088 37.7262V37.9647C53.5088 38.2157 53.5423 38.4437 53.6092 38.6487C53.6803 38.8537 53.7807 39.0294 53.9104 39.1758C54.0443 39.3181 54.2033 39.4289 54.3874 39.5084C54.5756 39.5879 54.789 39.6277 55.0275 39.6277C55.3161 39.6277 55.6006 39.5733 55.8809 39.4645C56.1612 39.3557 56.4018 39.1758 56.6026 38.9248L57.5628 40.0669C57.4247 40.2636 57.2281 40.4539 56.9729 40.638C56.7218 40.8221 56.4206 40.9727 56.0692 41.0898C55.7178 41.2028 55.3245 41.2593 54.8894 41.2593Z" fill="white"/>
<path d="M46.3617 37.2492H44.0084L43.9958 35.8058H45.9036C46.2466 35.8058 46.5206 35.7682 46.7256 35.6929C46.9306 35.6134 47.0792 35.4983 47.1712 35.3477C47.2674 35.1971 47.3155 35.0088 47.3155 34.7829C47.3155 34.5235 47.2674 34.3144 47.1712 34.1554C47.075 33.9964 46.9223 33.8813 46.7131 33.8102C46.5081 33.7349 46.2424 33.6973 45.9161 33.6973H44.8367V41.1337H42.634V31.9966H45.9161C46.4809 31.9966 46.985 32.0489 47.4285 32.1535C47.872 32.2539 48.2485 32.4087 48.5581 32.6179C48.8718 32.8271 49.1103 33.0906 49.2735 33.4086C49.4366 33.7224 49.5182 34.0926 49.5182 34.5193C49.5182 34.8917 49.4387 35.241 49.2798 35.5674C49.1208 35.8937 48.8551 36.1593 48.4828 36.3643C48.1146 36.5652 47.6105 36.6697 46.9704 36.6781L46.3617 37.2492ZM46.2738 41.1337H43.4749L44.228 39.4393H46.2738C46.575 39.4393 46.8156 39.3933 46.9955 39.3013C47.1796 39.205 47.3113 39.0795 47.3908 38.9247C47.4745 38.7657 47.5163 38.59 47.5163 38.3976C47.5163 38.1633 47.4766 37.9604 47.3971 37.7889C47.3218 37.6173 47.2005 37.4856 47.0331 37.3935C46.8658 37.2973 46.642 37.2492 46.3617 37.2492H44.5104L44.5229 35.8058H46.7382L47.2528 36.3832C47.8636 36.3581 48.3468 36.4438 48.7024 36.6405C49.0622 36.8371 49.3195 37.0965 49.4743 37.4186C49.6291 37.7408 49.7065 38.0775 49.7065 38.429C49.7065 39.0272 49.5768 39.5272 49.3174 39.9288C49.0622 40.3304 48.6794 40.6317 48.169 40.8325C47.6586 41.0333 47.0269 41.1337 46.2738 41.1337Z" fill="white"/>
</svg>
