<svg width="20" height="24" viewBox="0 0 20 24" fill="none" xmlns="http://www.w3.org/2000/svg">
<path d="M15.8673 3.76C14.9956 2.71937 14.5152 1.3832 14.5153 0H10.574V16.5333C10.5442 17.4283 10.1831 18.2761 9.56672 18.898C8.95038 19.5199 8.12704 19.8672 7.27041 19.8667C5.45918 19.8667 3.95408 18.32 3.95408 16.4C3.95408 14.1067 6.07143 12.3867 8.25255 13.0933V8.88C3.85204 8.26667 0 11.84 0 16.4C0 20.84 3.52041 24 7.25765 24C11.2628 24 14.5153 20.6 14.5153 16.4V8.01333C16.1135 9.21313 18.0324 9.85686 20 9.85333V5.73333C20 5.73333 17.602 5.85333 15.8673 3.76Z" fill="white"/>
</svg>
